<svg xmlns="http://www.w3.org/2000/svg" version="1.1" xmlns:xlink="http://www.w3.org/1999/xlink" xmlns:svgjs="http://svgjs.dev/svgjs" width="1500" height="1500" viewBox="0 0 1500 1500"><rect width="1500" height="1500" fill="#00050b"></rect><g transform="matrix(0.6666666666666666,0,0,0.6666666666666666,248.83988591706634,242.36774193548388)"><svg viewBox="0 0 245 248" data-background-color="#00050b" preserveAspectRatio="xMidYMid meet" height="1518" width="1500" xmlns="http://www.w3.org/2000/svg" xmlns:xlink="http://www.w3.org/1999/xlink"><g id="tight-bounds" transform="matrix(1,0,0,1,0.28422795031875125,0.4000000000000057)"><svg viewBox="0 0 244.43135999999998 247.2" height="247.2" width="244.43135999999998"><g><svg></svg></g><g><svg viewBox="0 0 244.43135999999998 247.2" height="247.2" width="244.43135999999998"><g transform="matrix(1,0,0,1,0,52.25872137691513)"><svg viewBox="0 0 244.43135999999998 142.68255724616972" height="142.68255724616972" width="244.43135999999998"><g><svg viewBox="0 0 244.43135999999998 142.68255724616972" height="142.68255724616972" width="244.43135999999998"><g transform="matrix(1,0,0,1,0,74.19492696776783)"><svg viewBox="0 0 244.43135999999998 68.48763027840188" height="68.48763027840188" width="244.43135999999998"><g id="textblocktransform"><svg viewBox="0 0 244.43135999999998 68.48763027840188" height="68.48763027840188" width="244.43135999999998" id="textblock"><g><svg viewBox="0 0 244.43135999999998 46.88393711402466" height="46.88393711402466" width="244.43135999999998"><g transform="matrix(1,0,0,1,0,0)"><svg width="244.43135999999998" viewBox="1.9903032443886683 -18.91590176961133 301.77718654538774 57.88333176961133" height="46.88393711402466" data-palette-color="#ffd704"><path d="M38.061 3.795l-2.985 13.904c-0.095 0.443-0.262 0.837-0.499 1.181-0.238 0.344-0.527 0.627-0.867 0.847-0.333 0.215-0.709 0.363-1.129 0.443-0.412 0.075-0.839 0.065-1.282-0.03v0l-22.262-4.781c-0.567-0.122-1.165-0.322-1.794-0.6-0.624-0.27-1.228-0.618-1.812-1.043-0.577-0.424-1.111-0.924-1.6-1.5-0.49-0.576-0.891-1.231-1.204-1.966-0.311-0.742-0.51-1.562-0.597-2.461-0.092-0.906-0.024-1.89 0.204-2.952v0l3.589-16.71c0.122-0.567 0.322-1.165 0.6-1.794 0.278-0.629 0.626-1.233 1.043-1.811 0.424-0.577 0.927-1.11 1.509-1.599 0.589-0.487 1.251-0.887 1.987-1.199 0.735-0.313 1.552-0.512 2.45-0.599 0.9-0.093 1.877-0.026 2.933 0.2v0l25.088 5.388-1.325 6.169-25.088-5.387c-0.802-0.172-1.464-0.089-1.986 0.248-0.515 0.333-0.862 0.919-1.043 1.76v0l-3.578 16.66c-0.169 0.789-0.086 1.448 0.251 1.977 0.343 0.53 0.909 0.88 1.697 1.05v0l19.203 4.123 1.66-7.733-16.425-3.527 1.335-6.219 19.486 4.185c0.443 0.095 0.836 0.265 1.179 0.509 0.348 0.252 0.629 0.548 0.843 0.886 0.219 0.347 0.366 0.723 0.443 1.129 0.077 0.405 0.069 0.823-0.023 1.253zM71.546 8.778v0c-0.133 0.863-0.428 1.772-0.886 2.726-0.458 0.955-1.091 1.805-1.9 2.55-0.811 0.752-1.811 1.333-3.001 1.743-1.182 0.405-2.557 0.486-4.126 0.244v0l-11.247-1.734 0.915-5.93 11.247 1.735c0.85 0.131 1.545-0.025 2.086-0.468 0.548-0.448 0.882-1.058 1-1.829v0c0.126-0.817-0.036-1.496-0.485-2.038-0.449-0.541-1.043-0.869-1.781-0.983v0l-11.247-1.734c-0.85-0.131-1.546 0.028-2.087 0.477-0.547 0.442-0.88 1.048-0.999 1.819v0l-1.343 8.707c-0.128 0.83 0.032 1.519 0.481 2.068 0.449 0.541 1.06 0.872 1.83 0.99v0l11.198 1.727-0.918 5.95-11.247-1.735c-0.863-0.133-1.772-0.428-2.727-0.886-0.955-0.458-1.808-1.092-2.56-1.902-0.751-0.817-1.329-1.817-1.733-2.999-0.405-1.182-0.486-2.557-0.244-4.126v0l1.351-8.756c0.133-0.863 0.428-1.772 0.885-2.727 0.457-0.948 1.09-1.798 1.901-2.55 0.811-0.752 1.811-1.333 3.001-1.743 1.182-0.405 2.557-0.486 4.126-0.244v0l11.247 1.734c0.863 0.133 1.772 0.428 2.726 0.886 0.955 0.458 1.805 1.091 2.55 1.901 0.751 0.817 1.332 1.818 1.743 3.001 0.405 1.182 0.486 2.557 0.244 4.126zM103.634 12.056v0c-0.09 0.869-0.339 1.791-0.748 2.768-0.409 0.976-0.999 1.857-1.771 2.642-0.772 0.792-1.742 1.422-2.909 1.891-1.16 0.463-2.53 0.613-4.108 0.451v0l-11.32-1.169 0.616-5.968 11.32 1.168c0.855 0.088 1.542-0.102 2.059-0.571 0.525-0.475 0.827-1.101 0.908-1.877v0c0.085-0.822-0.111-1.493-0.587-2.011-0.476-0.518-1.085-0.816-1.828-0.892v0l-11.319-1.169c-0.855-0.088-1.542 0.105-2.061 0.581-0.524 0.469-0.826 1.091-0.907 1.867v0l-0.904 8.764c-0.086 0.836 0.108 1.516 0.583 2.04 0.476 0.518 1.102 0.817 1.878 0.898v0l11.27 1.164-0.618 5.988-11.32-1.169c-0.869-0.09-1.791-0.339-2.768-0.748-0.976-0.409-1.861-1-2.652-1.772-0.791-0.779-1.418-1.748-1.881-2.909-0.463-1.16-0.613-2.53-0.451-4.108v0l0.91-8.813c0.09-0.869 0.339-1.791 0.748-2.767 0.408-0.97 0.999-1.851 1.771-2.643 0.772-0.792 1.742-1.422 2.91-1.891 1.16-0.463 2.53-0.613 4.108-0.45v0l11.32 1.168c0.869 0.09 1.791 0.339 2.767 0.749 0.976 0.409 1.857 0.999 2.642 1.77 0.791 0.779 1.421 1.749 1.892 2.91 0.463 1.16 0.613 2.53 0.45 4.108zM123.432 16.272l14.108 15.063-9.088-0.466-12.075-12.916c-0.679-0.682-0.971-1.508-0.874-2.478v0c0.057-0.451 0.195-0.868 0.414-1.25 0.227-0.389 0.524-0.711 0.891-0.966v0l11.991-8.697 10.087 0.517zM115.063-7.197l-1.911 37.281-6.302-0.323 1.911-37.281zM175.916 20.861v0c0.006 1.247-0.145 2.367-0.453 3.362-0.308 0.995-0.721 1.874-1.237 2.636-0.516 0.763-1.12 1.412-1.811 1.949-0.691 0.543-1.408 0.984-2.153 1.321-0.745 0.344-1.5 0.601-2.266 0.771-0.766 0.164-1.489 0.247-2.169 0.251v0l-24.35 0.121-0.031-6.31 24.349-0.121c1.213-0.006 2.155-0.367 2.825-1.084 0.663-0.717 0.992-1.672 0.986-2.865v0c-0.003-0.587-0.092-1.123-0.268-1.609-0.182-0.479-0.441-0.898-0.776-1.256-0.335-0.352-0.74-0.623-1.214-0.814-0.481-0.191-1.011-0.285-1.592-0.282v0l-14.52 0.072c-1.02 0.005-2.121-0.173-3.302-0.534-1.182-0.361-2.281-0.942-3.299-1.743-1.017-0.802-1.863-1.857-2.536-3.168-0.68-1.31-1.024-2.912-1.034-4.805v0c-0.009-1.893 0.319-3.492 0.987-4.795 0.66-1.303 1.495-2.367 2.504-3.192 1.009-0.825 2.103-1.42 3.281-1.786 1.178-0.373 2.277-0.561 3.297-0.567v0l21.48-0.106 0.031 6.31-21.479 0.106c-1.193 0.006-2.125 0.377-2.795 1.114-0.67 0.73-1.002 1.692-0.996 2.885v0c0.006 1.213 0.347 2.172 1.025 2.875 0.677 0.703 1.612 1.052 2.805 1.046v0l14.52-0.072 0.05 0c0.68 0.01 1.401 0.1 2.161 0.269 0.761 0.163 1.519 0.419 2.274 0.769 0.748 0.356 1.464 0.803 2.147 1.339 0.683 0.537 1.289 1.187 1.819 1.951 0.53 0.757 0.951 1.629 1.263 2.614 0.312 0.985 0.47 2.101 0.477 3.348zM209.05 11.663l0.515 8.524c0.065 1.085-0.012 2.068-0.233 2.949-0.221 0.875-0.538 1.655-0.95 2.342-0.413 0.679-0.905 1.267-1.477 1.762-0.571 0.495-1.174 0.909-1.809 1.241-0.634 0.332-1.28 0.585-1.937 0.758-0.65 0.18-1.275 0.287-1.874 0.324v0l-11.36 0.686-0.38-6.299 11.36-0.686c0.838-0.051 1.454-0.308 1.846-0.772 0.393-0.458 0.565-1.099 0.515-1.925v0l-0.512-8.484c-0.053-0.872-0.305-1.504-0.755-1.898-0.451-0.394-1.089-0.565-1.915-0.516v0l-11.319 0.683c-0.852 0.051-1.484 0.307-1.898 0.766-0.407 0.452-0.585 1.091-0.535 1.916v0l1.542 25.553-6.299 0.38-1.542-25.553c-0.065-1.085 0.012-2.064 0.234-2.939 0.221-0.868 0.542-1.646 0.961-2.333 0.42-0.68 0.915-1.267 1.486-1.762 0.571-0.495 1.174-0.909 1.809-1.242 0.641-0.333 1.29-0.585 1.948-0.758 0.664-0.18 1.288-0.288 1.873-0.324v0l11.36-0.685c1.085-0.065 2.061 0.013 2.929 0.234 0.875 0.228 1.653 0.548 2.332 0.961 0.679 0.413 1.27 0.902 1.772 1.466 0.495 0.571 0.909 1.174 1.241 1.808 0.326 0.642 0.579 1.287 0.758 1.938 0.173 0.657 0.278 1.286 0.314 1.885zM241.082 7.859l0.999 8.803c0.099 0.868 0.053 1.822-0.138 2.864-0.19 1.041-0.578 2.028-1.163 2.96-0.591 0.939-1.403 1.763-2.437 2.471-1.034 0.701-2.34 1.141-3.916 1.32v0l-11.308 1.283c-0.868 0.099-1.822 0.053-2.864-0.138-1.041-0.19-2.031-0.578-2.97-1.162-0.939-0.591-1.76-1.404-2.46-2.438-0.701-1.034-1.141-2.34-1.32-3.916v0c-0.099-0.868-0.053-1.826 0.136-2.874 0.19-1.048 0.577-2.041 1.162-2.98 0.585-0.939 1.394-1.758 2.428-2.459 1.041-0.702 2.349-1.142 3.926-1.322v0l11.307-1.283 0.679 5.981-11.307 1.284c-0.855 0.097-1.484 0.43-1.89 0.999-0.411 0.577-0.572 1.253-0.484 2.028v0c0.093 0.821 0.437 1.43 1.033 1.825 0.588 0.396 1.25 0.552 1.985 0.469v0l11.268-1.279c0.855-0.097 1.484-0.43 1.889-0.999 0.406-0.563 0.565-1.232 0.477-2.007v0l-0.994-8.754c-0.093-0.821-0.419-1.445-0.977-1.871-0.558-0.42-1.224-0.586-1.999-0.498v0l-13.772 1.563-0.676-5.962 13.771-1.563c0.868-0.099 1.822-0.053 2.864 0.138 1.041 0.19 2.028 0.578 2.96 1.164 0.939 0.591 1.763 1.403 2.471 2.436 0.701 1.034 1.141 2.34 1.32 3.917zM273.084 14.067l1.011 6.228-16.898 2.745c-0.862 0.14-1.828 0.141-2.897 0.004-1.076-0.136-2.105-0.482-3.086-1.039-0.981-0.55-1.854-1.333-2.621-2.35-0.76-1.018-1.27-2.333-1.532-3.945v0l-1.369-8.43c-0.096-0.592-0.132-1.228-0.108-1.907 0.032-0.674 0.14-1.36 0.325-2.059 0.178-0.691 0.45-1.37 0.814-2.037 0.359-0.659 0.825-1.265 1.396-1.817 0.572-0.552 1.26-1.035 2.065-1.45 0.805-0.408 1.741-0.698 2.806-0.871v0l16.899-2.745 1.011 6.229-16.898 2.744c-0.816 0.133-1.401 0.44-1.755 0.924-0.354 0.483-0.461 1.155-0.321 2.017v0l1.363 8.39c0.133 0.816 0.447 1.403 0.945 1.761 0.505 0.364 1.172 0.478 2.001 0.344v0zM303.584-3.928v0c0.182 0.854 0.229 1.809 0.14 2.864-0.089 1.055-0.379 2.075-0.871 3.059-0.491 0.991-1.219 1.889-2.186 2.695-0.961 0.798-2.218 1.363-3.769 1.694v0l-11.13 2.374-1.252-5.868 11.13-2.374c0.841-0.179 1.436-0.572 1.783-1.178 0.353-0.614 0.448-1.302 0.286-2.065v0c-0.172-0.808-0.565-1.386-1.177-1.733-0.612-0.347-1.284-0.442-2.014-0.286v0l-11.13 2.374c-0.841 0.179-1.435 0.575-1.781 1.188-0.354 0.607-0.45 1.292-0.288 2.055v0l1.838 8.616c0.175 0.822 0.57 1.409 1.184 1.762 0.612 0.347 1.3 0.438 2.062 0.276v0l11.081-2.364 1.256 5.888-11.13 2.374c-0.854 0.182-1.809 0.229-2.863 0.14-1.055-0.089-2.078-0.378-3.069-0.869-0.992-0.497-1.887-1.227-2.686-2.188-0.798-0.961-1.363-2.218-1.693-3.769v0l-1.849-8.665c-0.182-0.854-0.229-1.809-0.14-2.864 0.09-1.048 0.38-2.068 0.871-3.059 0.491-0.991 1.219-1.889 2.186-2.695 0.961-0.798 2.218-1.363 3.769-1.694v0l11.13-2.374c0.854-0.182 1.809-0.229 2.864-0.141 1.055 0.089 2.075 0.379 3.059 0.871 0.992 0.497 1.891 1.226 2.695 2.186 0.798 0.961 1.363 2.218 1.694 3.77z" opacity="1" transform="matrix(1,0,0,1,0,0)" fill="#ffd704" class="wordmark-text-0" data-fill-palette-color="primary" id="text-0"></path></svg></g></svg></g><g transform="matrix(1,0,0,1,43.569889919999994,61.722894505173976)"><svg viewBox="0 0 157.29158016 6.764735773227905" height="6.764735773227905" width="157.29158016"><g transform="matrix(1,0,0,1,0,0)"><svg width="157.29158016" viewBox="2.98 -35.5 836.68 35.99" height="6.764735773227905" data-palette-color="#ffd704"><path d="M37.99-35.01L37.99-3.2Q37.99-2.51 37.74-1.93 37.5-1.34 37.06-0.92 36.62-0.49 36.04-0.24 35.45 0 34.79 0L34.79 0 20.48 0Q18.46 0 16.38-0.44 14.31-0.88 12.37-1.79 10.42-2.71 8.72-4.13 7.01-5.54 5.73-7.48 4.44-9.42 3.71-11.93 2.98-14.43 2.98-17.5L2.98-17.5 2.98-35.01 9.33-35.01 9.33-17.5Q9.33-14.82 10.07-12.96 10.82-11.11 11.96-9.86 13.11-8.62 14.48-7.91 15.84-7.2 17.08-6.86 18.31-6.52 19.25-6.43 20.19-6.35 20.48-6.35L20.48-6.35 31.64-6.35 31.64-35.01 37.99-35.01ZM80.34-35.01L80.34-2.71Q80.34-2.03 80.09-1.44 79.83-0.85 79.4-0.43 78.98 0 78.39 0.24 77.81 0.49 77.15 0.49L77.15 0.49Q76.56 0.49 75.96 0.27 75.36 0.05 74.9-0.44L74.9-0.44 51.71-24.66 51.71 0 45.36 0 45.36-32.3Q45.36-33.28 45.91-34.07 46.46-34.86 47.31-35.25L47.31-35.25Q48.22-35.62 49.17-35.44 50.12-35.25 50.8-34.55L50.8-34.55 74-10.35 74-35.01 80.34-35.01ZM119.87-6.35L119.87 0 90.91 0Q90.23 0 89.64-0.24 89.06-0.49 88.63-0.92 88.2-1.34 87.96-1.93 87.71-2.51 87.71-3.2L87.71-3.2 87.71-35.01 94.06-35.01 94.06-6.35 119.87-6.35ZM153.17-20.7L153.17-14.31 133.12-14.31 133.12-20.7 153.17-20.7ZM156.02-6.35L156.02 0 133.12 0Q131.8 0 130.24-0.46 128.68-0.93 127.35-1.99 126.02-3.05 125.13-4.75 124.24-6.45 124.24-8.91L124.24-8.91 124.24-31.81Q124.24-32.47 124.48-33.06 124.72-33.64 125.15-34.08 125.58-34.52 126.16-34.77 126.75-35.01 127.43-35.01L127.43-35.01 156.02-35.01 156.02-28.66 130.58-28.66 130.58-8.91Q130.58-7.67 131.24-7.01 131.9-6.35 133.17-6.35L133.17-6.35 156.02-6.35ZM196.5-31.81L196.5 0 190.15 0 190.15-8.59 167.84-8.59 167.84 0 161.49 0 161.49-17.5Q161.49-21.34 162.81-24.56 164.13-27.78 166.47-30.1 168.81-32.42 172.01-33.72 175.21-35.01 178.99-35.01L178.99-35.01 193.3-35.01Q193.96-35.01 194.55-34.77 195.13-34.52 195.57-34.08 196.01-33.64 196.25-33.06 196.5-32.47 196.5-31.81L196.5-31.81ZM167.84-17.5L167.84-14.94 190.15-14.94 190.15-28.66 178.99-28.66Q178.7-28.66 177.76-28.58 176.82-28.49 175.59-28.15 174.36-27.81 172.99-27.1 171.62-26.39 170.47-25.15 169.33-23.9 168.58-22.03 167.84-20.17 167.84-17.5L167.84-17.5ZM237.51-10.3L237.51-10.3Q237.51-8.42 237.04-6.92 236.56-5.42 235.78-4.27 235-3.13 233.95-2.32 232.9-1.51 231.77-1 230.65-0.49 229.49-0.24 228.33 0 227.31 0L227.31 0 202.82 0 202.82-6.35 227.31-6.35Q229.14-6.35 230.15-7.42 231.16-8.5 231.16-10.3L231.16-10.3Q231.16-11.18 230.9-11.91 230.63-12.65 230.13-13.18 229.63-13.72 228.91-14.01 228.19-14.31 227.31-14.31L227.31-14.31 212.71-14.31Q211.17-14.31 209.39-14.86 207.6-15.41 206.08-16.63 204.55-17.85 203.54-19.82 202.53-21.8 202.53-24.66L202.53-24.66Q202.53-27.51 203.54-29.48 204.55-31.45 206.08-32.68 207.6-33.91 209.39-34.46 211.17-35.01 212.71-35.01L212.71-35.01 234.31-35.01 234.31-28.66 212.71-28.66Q210.9-28.66 209.89-27.56 208.87-26.46 208.87-24.66L208.87-24.66Q208.87-22.83 209.89-21.77 210.9-20.7 212.71-20.7L212.71-20.7 227.31-20.7 227.36-20.7Q228.38-20.68 229.53-20.42 230.68-20.17 231.81-19.63 232.95-19.09 233.97-18.27 235-17.46 235.79-16.31 236.58-15.16 237.05-13.67 237.51-12.18 237.51-10.3ZM249.18-35.01L249.18-20.7 271.47-20.7 271.47-35.01 277.82-35.01 277.82 0 271.47 0 271.47-14.31 249.18-14.31 249.18 0 242.83 0 242.83-35.01 249.18-35.01ZM334.43-35.01L334.43-23.29Q334.43-21.12 333.88-19.41 333.33-17.7 332.43-16.39 331.52-15.09 330.31-14.16 329.11-13.23 327.81-12.63 326.52-12.04 325.19-11.77 323.86-11.5 322.69-11.5L322.69-11.5 320.12-11.5 320.12 0 313.73 0 313.73-11.5 311.19-11.5Q310.01-11.5 308.68-11.77 307.35-12.04 306.05-12.63 304.74-13.23 303.54-14.16 302.35-15.09 301.43-16.39 300.52-17.7 299.97-19.42 299.42-21.14 299.42-23.29L299.42-23.29 299.42-35.01 305.77-35.01 305.77-23.29Q305.77-22.05 306.16-21.06 306.55-20.07 307.26-19.36 307.96-18.65 308.98-18.27 309.99-17.9 311.23-17.9L311.23-17.9 322.69-17.9Q323.59-18.04 324.54-18.27 325.49-18.51 326.27-19.07 327.06-19.63 327.57-20.63 328.08-21.63 328.08-23.29L328.08-23.29 328.08-35.01 334.43-35.01ZM376.88-20.85L376.88-14.16Q376.88-10.96 375.78-8.28 374.68-5.59 372.73-3.64 370.78-1.68 368.1-0.6 365.43 0.49 362.28 0.49L362.28 0.49 353.69 0.49Q350.54 0.49 347.85-0.6 345.17-1.68 343.21-3.64 341.26-5.59 340.15-8.28 339.04-10.96 339.04-14.16L339.04-14.16 339.04-20.85Q339.04-24.02 340.15-26.72 341.26-29.42 343.21-31.36 345.17-33.3 347.85-34.4 350.54-35.5 353.69-35.5L353.69-35.5 362.28-35.5Q365.43-35.5 368.1-34.4 370.78-33.3 372.73-31.36 374.68-29.42 375.78-26.72 376.88-24.02 376.88-20.85L376.88-20.85ZM370.53-14.16L370.53-20.85Q370.53-22.73 369.94-24.26 369.34-25.78 368.25-26.87 367.17-27.95 365.64-28.55 364.11-29.15 362.28-29.15L362.28-29.15 353.69-29.15Q351.83-29.15 350.31-28.55 348.78-27.95 347.68-26.87 346.58-25.78 345.99-24.26 345.39-22.73 345.39-20.85L345.39-20.85 345.39-14.16Q345.39-12.28 345.99-10.75 346.58-9.23 347.68-8.14 348.78-7.06 350.31-6.46 351.83-5.86 353.69-5.86L353.69-5.86 362.23-5.86Q364.09-5.86 365.61-6.46 367.14-7.06 368.24-8.14 369.34-9.23 369.94-10.75 370.53-12.28 370.53-14.16L370.53-14.16ZM417.46-35.01L417.46-3.2Q417.46-2.51 417.21-1.93 416.97-1.34 416.53-0.92 416.09-0.49 415.5-0.24 414.92 0 414.26 0L414.26 0 399.95 0Q397.92 0 395.85-0.44 393.77-0.88 391.83-1.79 389.89-2.71 388.18-4.13 386.47-5.54 385.19-7.48 383.91-9.42 383.18-11.93 382.45-14.43 382.45-17.5L382.45-17.5 382.45-35.01 388.79-35.01 388.79-17.5Q388.79-14.82 389.54-12.96 390.28-11.11 391.43-9.86 392.58-8.62 393.94-7.91 395.31-7.2 396.54-6.86 397.78-6.52 398.72-6.43 399.66-6.35 399.95-6.35L399.95-6.35 411.11-6.35 411.11-35.01 417.46-35.01ZM459.81-27.29L459.81-23.24Q459.81-21.07 459.27-19.36 458.74-17.65 457.82-16.35 456.91-15.04 455.71-14.11 454.51-13.18 453.21-12.59 451.9-11.99 450.57-11.72 449.24-11.45 448.07-11.45L448.07-11.45 461.33 0 451.51 0 438.28-11.45 433.71-11.45 433.71-17.8 448.07-17.8Q449.26-17.9 450.25-18.3 451.24-18.7 451.96-19.38 452.68-20.07 453.07-21.03 453.46-22 453.46-23.24L453.46-23.24 453.46-27.25Q453.46-27.78 453.33-28.06 453.2-28.34 452.99-28.48 452.78-28.61 452.55-28.64 452.32-28.66 452.12-28.66L452.12-28.66 431.17-28.66 431.17 0 424.83 0 424.83-31.81Q424.83-32.47 425.07-33.06 425.31-33.64 425.74-34.08 426.17-34.52 426.75-34.77 427.34-35.01 428.02-35.01L428.02-35.01 452.12-35.01Q454.24-35.01 455.71-34.24 457.17-33.47 458.09-32.31 459.01-31.15 459.41-29.81 459.81-28.47 459.81-27.29L459.81-27.29ZM488.57-35.01L488.57 0 482.22 0 482.22-35.01 488.57-35.01ZM530.97-35.01L530.97-2.71Q530.97-2.03 530.71-1.44 530.46-0.85 530.03-0.43 529.6 0 529.02 0.24 528.43 0.49 527.77 0.49L527.77 0.49Q527.19 0.49 526.59 0.27 525.99 0.05 525.53-0.44L525.53-0.44 502.33-24.66 502.33 0 495.99 0 495.99-32.3Q495.99-33.28 496.53-34.07 497.08-34.86 497.94-35.25L497.94-35.25Q498.84-35.62 499.79-35.44 500.75-35.25 501.43-34.55L501.43-34.55 524.62-10.35 524.62-35.01 530.97-35.01ZM573.33-35.01L573.33-2.71Q573.33-2.03 573.07-1.44 572.81-0.85 572.39-0.43 571.96 0 571.37 0.24 570.79 0.49 570.13 0.49L570.13 0.49Q569.54 0.49 568.94 0.27 568.35 0.05 567.88-0.44L567.88-0.44 544.69-24.66 544.69 0 538.34 0 538.34-32.3Q538.34-33.28 538.89-34.07 539.44-34.86 540.29-35.25L540.29-35.25Q541.2-35.62 542.15-35.44 543.1-35.25 543.79-34.55L543.79-34.55 566.98-10.35 566.98-35.01 573.33-35.01ZM609.48-20.7L609.48-14.31 589.44-14.31 589.44-20.7 609.48-20.7ZM612.34-6.35L612.34 0 589.44 0Q588.12 0 586.56-0.46 584.99-0.93 583.66-1.99 582.33-3.05 581.44-4.75 580.55-6.45 580.55-8.91L580.55-8.91 580.55-31.81Q580.55-32.47 580.79-33.06 581.04-33.64 581.47-34.08 581.89-34.52 582.48-34.77 583.07-35.01 583.75-35.01L583.75-35.01 612.34-35.01 612.34-28.66 586.9-28.66 586.9-8.91Q586.9-7.67 587.56-7.01 588.22-6.35 589.49-6.35L589.49-6.35 612.34-6.35ZM653.45-27.29L653.45-23.24Q653.45-21.07 652.91-19.36 652.37-17.65 651.46-16.35 650.54-15.04 649.35-14.11 648.15-13.18 646.84-12.59 645.54-11.99 644.21-11.72 642.88-11.45 641.71-11.45L641.71-11.45 654.96 0 645.15 0 631.92-11.45 627.35-11.45 627.35-17.8 641.71-17.8Q642.9-17.9 643.89-18.3 644.88-18.7 645.6-19.38 646.32-20.07 646.71-21.03 647.1-22 647.1-23.24L647.1-23.24 647.1-27.25Q647.1-27.78 646.97-28.06 646.83-28.34 646.62-28.48 646.42-28.61 646.19-28.64 645.95-28.66 645.76-28.66L645.76-28.66 624.81-28.66 624.81 0 618.46 0 618.46-31.81Q618.46-32.47 618.71-33.06 618.95-33.64 619.38-34.08 619.81-34.52 620.39-34.77 620.98-35.01 621.66-35.01L621.66-35.01 645.76-35.01Q647.88-35.01 649.35-34.24 650.81-33.47 651.73-32.31 652.64-31.15 653.05-29.81 653.45-28.47 653.45-27.29L653.45-27.29ZM710.35-17.5L710.35-3.2Q710.35-2.51 710.11-1.93 709.86-1.34 709.44-0.92 709.01-0.49 708.42-0.24 707.84 0 707.15 0L707.15 0 684.25 0Q683.38 0 682.36-0.21 681.35-0.42 680.36-0.85 679.37-1.29 678.47-1.99 677.56-2.69 676.87-3.67 676.17-4.66 675.76-5.97 675.34-7.28 675.34-8.91L675.34-8.91 675.34-26.1Q675.34-26.98 675.55-27.99 675.76-29 676.2-29.99 676.64-30.98 677.35-31.88 678.05-32.79 679.04-33.48 680.03-34.18 681.32-34.59 682.62-35.01 684.25-35.01L684.25-35.01 710.06-35.01 710.06-28.66 684.25-28.66Q683.01-28.66 682.35-28 681.69-27.34 681.69-26.05L681.69-26.05 681.69-8.91Q681.69-7.69 682.36-7.02 683.03-6.35 684.25-6.35L684.25-6.35 704.01-6.35 704.01-14.31 687.11-14.31 687.11-20.7 707.15-20.7Q707.84-20.7 708.42-20.45 709.01-20.19 709.44-19.75 709.86-19.31 710.11-18.74 710.35-18.16 710.35-17.5L710.35-17.5ZM745.75-20.7L745.75-14.31 725.71-14.31 725.71-20.7 745.75-20.7ZM748.61-6.35L748.61 0 725.71 0Q724.39 0 722.83-0.46 721.26-0.93 719.93-1.99 718.6-3.05 717.71-4.75 716.82-6.45 716.82-8.91L716.82-8.91 716.82-31.81Q716.82-32.47 717.06-33.06 717.31-33.64 717.74-34.08 718.16-34.52 718.75-34.77 719.33-35.01 720.02-35.01L720.02-35.01 748.61-35.01 748.61-28.66 723.17-28.66 723.17-8.91Q723.17-7.67 723.83-7.01 724.49-6.35 725.76-6.35L725.76-6.35 748.61-6.35ZM783.52-20.7L783.52-14.31 763.47-14.31 763.47-20.7 783.52-20.7ZM786.37-6.35L786.37 0 763.47 0Q762.15 0 760.59-0.46 759.03-0.93 757.7-1.99 756.37-3.05 755.48-4.75 754.59-6.45 754.59-8.91L754.59-8.91 754.59-31.81Q754.59-32.47 754.83-33.06 755.07-33.64 755.5-34.08 755.93-34.52 756.51-34.77 757.1-35.01 757.78-35.01L757.78-35.01 786.37-35.01 786.37-28.66 760.93-28.66 760.93-8.91Q760.93-7.67 761.59-7.01 762.25-6.35 763.52-6.35L763.52-6.35 786.37-6.35ZM811.2-17.5L829.19 0 820.18 0 805.9-14.31 801.43-14.31 801.43-20.7 805.9-20.7 820.18-35.01 829.19-35.01 811.2-17.5ZM798.9-35.01L798.9 0 792.55 0 792.55-35.01 798.9-35.01ZM839.66-35.01L838.17-8.59 833.8-8.59 832.32-35.01 839.66-35.01ZM839.18-3.2L839.18-3.2Q839.18-2.54 838.92-1.97 838.66-1.39 838.24-0.96 837.81-0.54 837.23-0.29 836.66-0.05 836.03-0.05L836.03-0.05Q835.37-0.05 834.79-0.29 834.22-0.54 833.79-0.96 833.37-1.39 833.12-1.97 832.88-2.54 832.88-3.2L832.88-3.2Q832.88-3.83 833.12-4.41 833.37-4.98 833.79-5.41 834.22-5.83 834.79-6.09 835.37-6.35 836.03-6.35L836.03-6.35Q836.66-6.35 837.23-6.09 837.81-5.83 838.24-5.41 838.66-4.98 838.92-4.41 839.18-3.83 839.18-3.2Z" opacity="1" transform="matrix(1,0,0,1,0,0)" fill="#ffd704" class="slogan-text-1" data-fill-palette-color="secondary" id="text-1"></path></svg></g></svg></g></svg></g></svg></g><g transform="matrix(1,0,0,1,79.6284940890385,0)"><svg viewBox="0 0 85.174371821923 71.22713548953796" height="71.22713548953796" width="85.174371821923"><g><svg xmlns="http://www.w3.org/2000/svg" xmlns:xlink="http://www.w3.org/1999/xlink" version="1.1" x="0" y="0" viewBox="0 0 60.0059225834216 50.18" enable-background="new 0 0 60 50.18" xml:space="preserve" id="icon-0" width="85.174371821923" height="71.22713548953796" class="icon-icon-0" data-fill-palette-color="accent"><g fill="#ffffff" data-fill-palette-color="accent"><path d="M43.56 36.26L24.56 38.26A1 1 0 0 0 23.67 39.36C23.72 39.87 24.16 40.26 24.66 40.26 24.69 40.26 24.73 40.26 24.77 40.25L27.5 39.96V43.18C27.5 43.45 27.61 43.72 27.81 43.91 28 44.09 28.24 44.18 28.5 44.18H28.56L35.09 43.82 40.51 43.52C41.04 43.49 41.45 43.05 41.45 42.52V38.5L43.77 38.26A1.006 1.006 0 0 0 43.56 36.26M29.5 39.76L34.03 39.28V41.86L29.5 42.11zM39.45 41.57L36.03 41.76V39.08L39.45 38.72z" fill="#ffffff" data-fill-palette-color="accent"></path><path d="M59.8 20.24C59.19 17.66 57.34 15.79 55.41 15.79 55.18 15.79 54.94 15.82 54.71 15.87 54.52 15.91 54.34 15.98 54.17 16.06 47.71 0.22 31.19 0 30.38 0 29.5 0 8.87 0.26 4.75 22.48 4.73 22.56 4.72 22.65 4.71 22.73 4.46 22.66 4.2 22.61 3.93 22.61 1.73 22.61 0 24.99 0 28.04S1.73 33.46 3.94 33.46C4.34 33.46 4.74 33.36 5.12 33.19 5.82 35.86 6.98 38.37 8.58 40.57 11.76 44.95 18.03 50.18 29.84 50.18H30.97C42.78 50.18 49.05 44.96 52.22 40.57 55.1 36.6 56.57 31.62 56.45 26.49 56.48 26.49 56.52 26.5 56.55 26.5 56.78 26.5 57 26.47 57.22 26.42 59.36 25.92 60.5 23.2 59.8 20.24M22.68 3.45C25.29 3.67 27.46 7.69 27.46 12.43H29.46C29.46 8.11 27.95 4.45 25.69 2.64 28.43 2.71 31.46 4.09 31.46 13.18H33.46C33.46 11.06 33.46 5.99 30.91 2.98 33.54 4.72 35.46 9.14 35.46 14.18H37.46C37.46 9.3 35.93 5.07 33.56 2.58 36.96 3.85 39.46 8.12 39.46 13.18H41.46C41.46 9.29 40.14 5.81 38.05 3.43 43 5.12 49.09 8.84 52.37 16.96L47.94 20.41C47.05 17.4 44.76 15.21 41.99 15.06 39.2 14.92 36.77 16.89 35.68 19.77 35.19 19.45 34.63 19.26 34.11 19.25 33.58 19.24 33.04 19.41 32.56 19.72 31.39 16.6 28.67 14.35 25.43 14.18 21.6 13.97 18.33 16.7 17.26 20.5L8.7 16.32C12.01 8.67 17.87 5.11 22.68 3.45M41.69 17.05C41.75 17.05 41.82 17.05 41.88 17.06 44.34 17.19 46.33 19.93 46.33 23.17S44.33 29.15 41.88 29.28C39.26 29.46 37.05 26.63 37.05 23.17 37.05 19.8 39.13 17.05 41.69 17.05M31.17 23.17C31.17 26.92 28.6 29.99 25.32 30.17 21.8 30.37 18.89 27.15 18.89 23.17 18.89 19.31 21.64 16.16 25.03 16.16 25.13 16.16 25.23 16.16 25.32 16.17 28.59 16.35 31.17 19.42 31.17 23.17M4.67 31.16C4.46 31.33 4.21 31.46 3.94 31.46 3.02 31.46 2 30.05 2 28.04S3.02 24.62 3.94 24.62C4.11 24.62 4.28 24.67 4.44 24.76 4.39 25.29 4.36 25.83 4.34 26.36V26.47C4.33 26.91 4.33 27.35 4.34 27.79 4.34 27.93 4.35 28.07 4.35 28.21 4.37 28.56 4.39 28.92 4.42 29.27 4.43 29.42 4.44 29.56 4.46 29.71 4.51 30.15 4.57 30.58 4.64 31.01 4.66 31.05 4.66 31.1 4.67 31.16M50.59 39.4C46.36 45.23 39.76 48.18 30.95 48.18H29.82C21.02 48.18 14.41 45.23 10.18 39.4 8.12 36.56 6.85 33.14 6.45 29.53 6.44 29.45 6.44 29.38 6.43 29.3 6.37 28.73 6.34 28.15 6.33 27.57 6.32 27.32 6.33 27.07 6.33 26.82 6.33 26.41 6.35 26 6.38 25.59 6.4 25.3 6.42 25 6.45 24.71 6.51 24.09 6.59 23.46 6.7 22.84 7.01 21.15 7.44 19.61 7.94 18.18L16.89 22.55C16.88 22.76 16.86 22.96 16.86 23.17 16.86 28.14 20.51 32.18 24.99 32.18 25.12 32.18 25.26 32.18 25.39 32.17 29.73 31.94 33.14 27.99 33.14 23.17 33.14 22.78 33.11 22.4 33.07 22.02H33.14C33.14 21.82 33.29 21.64 33.38 21.56 33.6 21.35 33.87 21.23 34.03 21.24 34.4 21.25 35.02 21.71 35.02 22.05H35.09C35.05 22.42 35.02 22.79 35.02 23.16 35.02 27.63 38 31.28 41.66 31.28 41.76 31.28 41.86 31.28 41.96 31.27 45.52 31.08 48.31 27.52 48.31 23.16 48.31 22.98 48.3 22.81 48.29 22.64L53.04 18.94C53.17 19.36 53.31 19.77 53.43 20.19 53.46 20.31 53.5 20.42 53.53 20.54 53.73 21.28 53.9 22.04 54.04 22.81V22.83C54.16 23.5 54.25 24.17 54.31 24.83 54.32 24.94 54.34 25.05 54.35 25.17 54.79 30.36 53.47 35.43 50.59 39.4M56.75 24.49C56.61 24.52 56.47 24.52 56.31 24.49 56.31 24.45 56.3 24.41 56.29 24.37 56.22 23.74 56.14 23.12 56.02 22.49V22.48C56.02 22.47 56.01 22.46 56.01 22.45 55.87 21.69 55.7 20.95 55.52 20.24 55.51 20.18 55.49 20.13 55.47 20.07A38 38 0 0 0 54.85 17.96C54.95 17.89 55.05 17.84 55.16 17.82 56.06 17.61 57.36 18.71 57.83 20.7 58.32 22.67 57.64 24.27 56.75 24.49" fill="#ffffff" data-fill-palette-color="accent"></path><circle cx="42.95" cy="25.68" r="1.5" fill="#ffffff" data-fill-palette-color="accent"></circle><circle cx="27.95" cy="24.68" r="1.5" fill="#ffffff" data-fill-palette-color="accent"></circle></g></svg></g></svg></g><g></g></svg></g></svg></g><path d="M0 46.259L0 1 244.431 1 244.431 46.259 238.763 46.259 238.763 6.668 5.668 6.668 5.668 46.259 0 46.259M0 200.941L0 246.2 244.431 246.2 244.431 200.941 238.763 200.941 238.763 240.532 5.668 240.532 5.668 200.941 0 200.941" fill="#ffd704" stroke="transparent" data-fill-palette-color="tertiary"></path></svg></g><defs></defs></svg><rect width="244.43135999999998" height="247.2" fill="none" stroke="none" visibility="hidden"></rect></g></svg></g></svg>